<svg width="55" height="45" viewBox="0 0 55 45" fill="none" xmlns="http://www.w3.org/2000/svg">
	<path d="M21.21 12.9999L3.72998 2.8999V35.5599L21.21 40.8299V12.9999Z" fill="white"/>
	<path d="M23.1299 13.0599V40.8399L40.7299 35.5499V2.8999L23.1299 13.0599Z" fill="white"/>
	<path d="M50.8298 34.9799H50.3198L52.3898 42.2099L54.4498 34.9799H53.9398H54.4498V5.91992H53.9398H53.4298H52.8798H51.8498H51.3498H50.8298H50.3198V34.9799H50.8298Z" fill="white"/>
	<path d="M44.49 4.29995L42.61 2.81995V36.4399L23.19 42.7199H22.29H22.11H21.21L1.87003 37.32V2.81995L0 4.29995V38.6299L21.12 44.4799H22.11H22.29H23.27L42.76 38.2899L44.49 37.7899V4.29995Z" fill="white"/>
	<path d="M54.4501 2.07C54.4501 0.93 53.5201 0 52.3801 0C51.2401 0 50.3101 0.92 50.3101 2.07V4.3H54.4501V2.07Z" fill="white"/>
</svg>
