<svg width="39" height="52" viewBox="0 0 39 52" fill="none" xmlns="http://www.w3.org/2000/svg">
	<path d="M15.87 33.85C9.42999 33.85 4.19 28.61 4.19 22.17C4.19 15.73 9.42999 10.49 15.87 10.49C22.31 10.49 27.55 15.73 27.55 22.17C27.55 28.61 22.31 33.85 15.87 33.85ZM38.3 0H26.19C26.11 0 26.04 0.0700015 26.04 0.150002V4.18C26.04 4.27 26.11 4.33 26.19 4.33H31.01L25.65 9.69C22.95 7.57 19.56 6.3 15.87 6.3C7.12 6.3 0 13.42 0 22.17C0 30.23 6.03998 36.89 13.82 37.9V42.54H9.03998C8.94998 42.54 8.87997 42.61 8.87997 42.69V47.01C8.87997 47.1 8.94998 47.16 9.03998 47.16H13.82V51.73C13.82 51.82 13.89 51.88 13.97 51.88H18.28C18.37 51.88 18.44 51.81 18.44 51.73V47.16H23.22C23.31 47.16 23.37 47.09 23.37 47.01V42.69C23.37 42.61 23.3 42.54 23.22 42.54H18.44V37.83C25.97 36.59 31.73 30.05 31.73 22.17C31.73 18.77 30.65 15.63 28.83 13.04L34.11 7.76V12.27C34.11 12.35 34.18 12.42 34.27 12.42H38.3C38.39 12.42 38.46 12.35 38.46 12.27V0.150002C38.46 0.0600015 38.39 0 38.3 0Z" fill="white"/>
	<path d="M22.9997 17.38H8.82968C8.73968 17.38 8.67969 17.44 8.67969 17.52V20.95C8.67969 21.03 8.74968 21.09 8.82968 21.09H22.9997C23.0897 21.09 23.1597 21.03 23.1597 20.95V17.52C23.1597 17.44 23.0897 17.38 22.9997 17.38Z" fill="white"/>
	<path d="M22.9997 23.5H8.82968C8.73968 23.5 8.67969 23.57 8.67969 23.64V27.07C8.67969 27.15 8.74968 27.21 8.82968 27.21H22.9997C23.0897 27.21 23.1597 27.15 23.1597 27.07V23.64C23.1597 23.56 23.0897 23.5 22.9997 23.5Z" fill="white"/>
</svg>
