<svg width="50" height="50" viewBox="0 0 50 50" fill="none" xmlns="http://www.w3.org/2000/svg">
	<path d="M24.8796 32.32C20.7796 32.32 17.4496 28.99 17.4496 24.89C17.4496 21.56 19.6496 18.73 22.6696 17.79V20.56C21.0896 21.36 20.0096 23 20.0096 24.89C20.0096 27.58 22.1896 29.75 24.8696 29.75C27.5496 29.75 29.7396 27.57 29.7396 24.89C29.7396 22.99 28.6496 21.36 27.0696 20.55V17.79C30.0996 18.73 32.3096 21.55 32.3096 24.89C32.3096 29 28.9796 32.32 24.8796 32.32ZM23.8196 16.35C23.8196 15.87 24.2996 15.35 24.8796 15.35C25.4596 15.35 25.9396 15.87 25.9396 16.35V21.25C25.9396 21.72 25.4696 22.24 24.8796 22.24C24.2896 22.24 23.8196 21.72 23.8196 21.25V16.35ZM24.8696 10.71C16.9796 10.71 10.5796 17.11 10.5796 25C10.5796 32.89 16.9796 39.29 24.8696 39.29C32.7596 39.29 39.1596 32.9 39.1596 25C39.1596 17.1 32.7596 10.71 24.8696 10.71Z" fill="black"/>
	<path d="M8.47 24.8699C8.47 24.2199 7.9 23.7 7.37 23.7H1.11C0.580001 23.7 0 24.2199 0 24.8699C0 25.5199 0.580001 26.05 1.11 26.05H7.37C7.89 26.05 8.47 25.5199 8.47 24.8699Z" fill="black"/>
	<path d="M49.74 24.8699C49.74 24.2199 49.17 23.7 48.64 23.7H42.38C41.85 23.7 41.27 24.2199 41.27 24.8699C41.27 25.5199 41.85 26.05 42.38 26.05H48.64C49.16 26.05 49.74 25.5199 49.74 24.8699Z" fill="black"/>
	<path d="M24.8797 49.7399C25.5297 49.7399 26.0497 49.1699 26.0497 48.6399V42.3799C26.0497 41.8499 25.5297 41.2699 24.8797 41.2699C24.2297 41.2699 23.6997 41.8499 23.6997 42.3799V48.6399C23.6997 49.1599 24.2297 49.7399 24.8797 49.7399Z" fill="black"/>
	<path d="M46.46 37.2199C46.78 36.6599 46.54 35.9199 46.09 35.6599L40.66 32.5499C40.2 32.2899 39.44 32.4599 39.12 33.0199C38.8 33.5799 39.04 34.3299 39.5 34.5899L44.93 37.6999C45.38 37.9599 46.14 37.7899 46.47 37.2199" fill="black"/>
	<path d="M12.5299 46.4499C13.0899 46.7699 13.8299 46.53 14.0899 46.08L17.1999 40.65C17.4599 40.19 17.2899 39.43 16.7299 39.11C16.1699 38.79 15.4199 39.03 15.1599 39.49L12.0499 44.92C11.7899 45.3699 11.9599 46.14 12.5299 46.46" fill="black"/>
	<path d="M37.27 46.4299C37.83 46.1099 38 45.3499 37.74 44.8899L34.62 39.4699C34.36 39.0099 33.61 38.7699 33.05 39.0999C32.49 39.4199 32.32 40.1899 32.58 40.6499L35.7 46.0699C35.96 46.5199 36.7 46.7599 37.27 46.4299Z" fill="black"/>
	<path d="M3.31977 37.27C3.63977 37.83 4.39977 38 4.85977 37.74L10.2798 34.62C10.7398 34.36 10.9798 33.61 10.6598 33.05C10.3398 32.49 9.56977 32.32 9.10977 32.58L3.68977 35.7C3.23977 35.96 2.99977 36.71 3.32977 37.27" fill="black"/>
	<path d="M10.6397 16.72C10.9597 16.16 10.7197 15.42 10.2697 15.16L4.83965 12.05C4.37965 11.79 3.61965 11.95 3.29965 12.52C2.97965 13.08 3.21965 13.83 3.67965 14.09L9.10965 17.2C9.56965 17.46 10.3297 17.29 10.6497 16.72" fill="black"/>
	<path d="M33.0299 10.6399C33.5899 10.9599 34.3299 10.7199 34.5899 10.2699L37.6999 4.83989C37.9599 4.37989 37.7899 3.61989 37.2299 3.29989C36.6699 2.97989 35.9199 3.2199 35.6599 3.6799L32.5499 9.10989C32.2899 9.55989 32.4599 10.3299 33.0299 10.6499" fill="black"/>
	<path d="M16.6997 10.6499C17.2597 10.3299 17.4297 9.56991 17.1697 9.10991L14.0497 3.68991C13.7897 3.22991 13.0397 2.98992 12.4797 3.31992C11.9197 3.63992 11.7497 4.4099 12.0097 4.8699L15.1297 10.2899C15.3897 10.7399 16.1297 10.9799 16.6997 10.6499Z" fill="black"/>
	<path d="M39.0998 16.6999C39.4198 17.2599 40.1798 17.4299 40.6398 17.1699L46.0598 14.0499C46.5198 13.7899 46.7598 13.0399 46.4398 12.4799C46.1198 11.9199 45.3498 11.7499 44.8898 12.0099L39.4698 15.1299C39.0198 15.3899 38.7798 16.1399 39.0998 16.6999Z" fill="black"/>
	<path d="M24.8797 8.47C25.5297 8.47 26.0497 7.89999 26.0497 7.37V1.11C26.0497 0.580001 25.5297 0 24.8797 0C24.2297 0 23.6997 0.580001 23.6997 1.11V7.37C23.6997 7.89 24.2297 8.47 24.8797 8.47Z" fill="black"/>
</svg>
