<svg width="47" height="50" viewBox="0 0 47 50" fill="none" xmlns="http://www.w3.org/2000/svg">
	<path d="M42.3472 11.72L32.4372 21.15C32.0672 21.52 31.8672 21.8 31.8672 22.57V48.99C31.8672 49.3 32.1172 49.55 32.4372 49.55H42.6772C42.9872 49.55 43.2372 49.3 43.2372 48.99V11.97C43.2372 11.66 42.9972 11.09 42.3472 11.73" fill="white"/>
	<path d="M13.7974 24L3.88739 33.42C3.51739 33.79 3.31738 34.07 3.31738 34.83V48.97C3.31738 49.28 3.56739 49.53 3.88739 49.53H14.1274C14.4374 49.53 14.6874 49.28 14.6874 48.97V24.23C14.6874 23.92 14.4374 23.35 13.7974 23.99" fill="white"/>
	<path d="M46.8475 0.290009C46.8475 0.210009 46.8275 0.130002 46.7675 0.0800018C46.7175 0.0300018 46.6475 0.01 46.5875 0H46.5375H46.4575L38.8675 1.71001H38.7275C38.6775 1.73001 38.6175 1.76 38.5775 1.8C38.4675 1.91 38.4675 2.10001 38.5775 2.21001L38.6675 2.3L40.3975 4.03L23.2075 21.22L15.2675 13.28C15.1775 13.19 15.0375 13.19 14.9475 13.28L12.7975 15.43L0.0675 28.16C-0.0225 28.25 -0.0225 28.39 0.0675 28.48L2.2275 30.64C2.3175 30.73 2.45751 30.73 2.54751 30.64L15.1175 18.07L20.8775 23.83C20.8775 23.83 20.8775 23.85 20.8975 23.86L23.0475 26.01C23.1375 26.1 23.2775 26.1 23.3675 26.01L42.8775 6.5L44.6975 8.32001C44.8075 8.43001 44.9875 8.43001 45.0975 8.32001C45.1475 8.27001 45.1775 8.2 45.1775 8.13V8.11L46.8475 0.37001V0.290009Z" fill="white"/>
	<path d="M28.1273 25.65L23.3373 30.48C23.2473 30.55 23.1173 30.55 23.0273 30.47L18.6873 26.04C17.8973 25.25 17.7173 25.89 17.7173 26.2V48.97C17.7173 49.28 17.9673 49.53 18.2773 49.53H28.5173C28.8273 49.53 29.0773 49.28 29.0773 48.97V25.83C29.0773 25.52 28.8273 24.95 28.1273 25.65Z" fill="white"/>
</svg>
