<svg width="50" height="51" viewBox="0 0 50 51" fill="none" xmlns="http://www.w3.org/2000/svg">
	<path d="M47.94 41.855L37.54 47.855V35.845L47.94 29.835V41.845V41.855ZM13.57 47.855V36.755L23.18 42.305L13.57 47.855ZM11.99 47.855L1.59 41.855V29.845L11.99 35.855V47.865V47.855ZM23.18 14.635L13.57 20.185V9.085L23.18 14.635ZM35.96 20.185L26.35 14.635L35.96 9.085V20.185ZM26.35 28.475L36.75 22.475L47.15 28.475L36.75 34.485L26.35 28.475ZM23.98 27.105L14.37 21.555L23.98 16.005V27.105ZM35.16 21.555L25.55 27.105V16.005L35.16 21.555ZM23.98 40.935L14.37 35.385L23.98 29.835V40.935ZM49.12 27.785L37.53 21.095V7.715C37.53 7.435 37.38 7.175 37.14 7.025L25.16 0.105C24.91 -0.035 24.61 -0.035 24.37 0.105L12.39 7.025C12.15 7.165 11.99 7.425 11.99 7.715V21.095L0.399994 27.785C0.149994 27.925 0 28.185 0 28.465V42.305C0 42.585 0.149994 42.845 0.399994 42.985L12.38 49.905C12.5 49.975 12.64 50.015 12.77 50.015C12.9 50.015 13.04 49.975 13.16 49.905L24.75 43.215L36.34 49.905C36.46 49.975 36.6 50.015 36.73 50.015C36.86 50.015 37 49.975 37.13 49.905L49.11 42.985C49.35 42.845 49.5 42.585 49.5 42.305V28.465C49.5 28.185 49.35 27.925 49.11 27.785" fill="white"/>
</svg>
