<svg width="48" height="47" viewBox="0 0 48 47" fill="none" xmlns="http://www.w3.org/2000/svg">
<path d="M13.1399 27.1801H16.0099C16.1299 27.1801 16.2299 27.2801 16.2299 27.4001V34.5C16.2299 34.62 16.1299 34.72 16.0099 34.72H13.1399C13.0199 34.72 12.9199 34.62 12.9199 34.5V27.4001C12.9199 27.2801 13.0199 27.19 13.1299 27.19L13.1399 27.1801Z" fill="black"/>
<path d="M47.56 37.76H0.220001C0.100001 37.76 0 37.86 0 37.98V40.87C0 40.99 0.100001 41.08 0.220001 41.08H47.56C47.68 41.08 47.78 40.98 47.78 40.87V37.98C47.78 37.86 47.68 37.76 47.56 37.76Z" fill="black"/>
<path d="M47.56 43.51H0.220001C0.100001 43.51 0 43.61 0 43.72V46.62C0 46.74 0.100001 46.83 0.220001 46.83H47.56C47.68 46.83 47.78 46.73 47.78 46.62V43.72C47.78 43.6 47.68 43.51 47.56 43.51Z" fill="black"/>
<path d="M38.55 19.32C37.96 18.86 36.38 17.78 34.45 17.78C33.07 17.78 31.79 18.32 30.65 19.4C30.57 19.48 30.52 19.58 30.52 19.7V19.96C30.52 20.09 30.56 20.21 30.66 20.28C30.76 20.36 30.87 20.39 30.99 20.36C31.02 20.36 31.05 20.35 31.08 20.34C31.17 20.31 31.25 20.26 31.32 20.19C31.57 20.02 32.25 19.8 33.22 19.8C34.19 19.8 36.19 20.07 38.1 21.84L38.14 21.88C38.25 21.99 38.39 22.05 38.55 22.05C38.71 22.05 38.85 21.99 38.95 21.88L38.99 21.84C40.91 20.06 42.87 19.79 43.88 19.79C44.89 19.79 45.53 20.02 45.78 20.18C45.85 20.25 45.93 20.3 46.04 20.34C46.08 20.35 46.2 20.38 46.32 20.34C46.49 20.29 46.62 20.13 46.62 19.95V19.72C46.62 19.61 46.57 19.5 46.49 19.43C45.33 18.33 44.04 17.77 42.64 17.77C40.73 17.77 39.16 18.83 38.55 19.31" fill="black"/>
<path d="M35.61 0.460007C35.51 0.510007 35.4399 0.600007 35.3999 0.710007L35.3499 0.86998C35.3099 0.98998 35.3399 1.13 35.4099 1.23C35.4799 1.33 35.59 1.38 35.7 1.39C35.72 1.39 35.74 1.39 35.76 1.39C35.84 1.39 35.9199 1.37 35.9899 1.33C36.0299 1.33 36.1199 1.3 36.2799 1.3C36.4899 1.3 38.3999 1.36999 39.6599 3.50999L39.6799 3.53999C39.7499 3.65999 39.86 3.74998 39.98 3.77998C40.02 3.78998 40.0899 3.8 40.1299 3.8C40.2199 3.8 40.3099 3.78001 40.3699 3.74001H40.3999C41.0899 3.38001 41.81 3.2 42.51 3.2C43.71 3.2 44.49 3.69 44.67 3.89C44.71 3.96 44.76 4.01999 44.83 4.06999C44.87 4.08999 44.94 4.13 44.98 4.14C45 4.14 45.03 4.14001 45.05 4.15001C45.06 4.15001 45.0799 4.15001 45.0899 4.15001C45.1599 4.15001 45.2199 4.13999 45.2799 4.09999C45.3799 4.04999 45.45 3.96 45.48 3.86L45.52 3.71999C45.52 3.71999 45.54 3.64999 45.54 3.59999C45.54 3.52999 45.52 3.45001 45.48 3.40001C44.56 1.80001 43.23 1.46999 42.27 1.46999C41.56 1.46999 40.9299 1.64999 40.5699 1.78999C40.1399 1.20999 39.0399 0 37.3799 0C36.7999 0 36.2 0.149997 35.61 0.449997" fill="black"/>
<path d="M25.6101 7.73999V7.94998C25.6301 8.07998 25.7001 8.19999 25.8101 8.26999C25.9001 8.32999 26.0201 8.34998 26.1301 8.31998C26.1501 8.31998 26.1801 8.30999 26.2001 8.29999C26.2801 8.26999 26.3501 8.20999 26.4101 8.14999C26.6101 7.99999 27.2601 7.73999 28.2101 7.73999C29.1601 7.73999 30.5301 7.98997 31.9501 9.15997L31.9801 9.18997C32.0801 9.27997 32.2101 9.32999 32.3401 9.32999H32.3801C32.5301 9.31999 32.6701 9.24999 32.7501 9.14999L32.7801 9.10999C34.3601 7.43999 36.0601 7.18997 36.9301 7.18997C37.5501 7.18997 37.9901 7.31998 38.1601 7.41998C38.2301 7.47998 38.3101 7.51999 38.4101 7.54999C38.4401 7.54999 38.5101 7.56997 38.5801 7.55997C38.6101 7.55997 38.6501 7.54998 38.6801 7.53998C38.8501 7.47998 38.9601 7.31997 38.9501 7.12997V6.94998C38.9301 6.83998 38.8801 6.73998 38.8001 6.66998C37.8601 5.87998 36.8401 5.47998 35.7701 5.47998C34.1001 5.47998 32.7801 6.45997 32.2301 6.93997C31.7301 6.59997 30.5001 5.88998 29.0701 5.88998C27.8101 5.88998 26.6801 6.40997 25.7101 7.43997C25.6301 7.51997 25.6001 7.62999 25.6001 7.73999" fill="black"/>
<path d="M1.6499 11.54C1.6499 8.70001 3.94989 6.41 6.77989 6.41C6.88989 6.41 6.99989 6.42002 7.10989 6.43002C7.37989 2.84002 10.3699 0.0100098 14.0299 0.0100098C17.6899 0.0100098 20.9699 3.12001 20.9699 6.95001C20.9699 8.04001 20.7099 9.06001 20.2699 9.98001C23.7499 10.75 26.3499 13.85 26.3499 17.55C26.3499 21.84 22.8799 25.31 18.5899 25.31C18.2799 25.31 8.2299 25.25 8.2299 25.25C5.1899 25.25 2.7399 22.79 2.7399 19.76C2.7399 18.3 3.3099 16.98 4.2399 16C2.6999 15.11 1.6599 13.46 1.6599 11.55" fill="black"/>
</svg>
