<svg width="73" height="37" viewBox="0 0 73 37" fill="none" xmlns="http://www.w3.org/2000/svg">
<path d="M50.82 21.56C50.42 21.45 48.73 19.1101 50.07 17.5801C50.29 17.3301 49.62 16.5801 49.81 16.5701C50.54 16.5101 50.93 16.97 51.12 17.62C51.13 17.91 51.15 18.2 51.14 18.49C51.14 19.54 51.03 20.57 50.82 21.56ZM46.69 29.15C46.54 29.11 46.39 29.06 46.22 28.97C45.4 28.55 45.5 29.2201 45.09 29.0701C44.68 28.9201 45.55 27.98 44.33 28.77C43.12 29.56 43.45 28.65 42.92 27.31C42.39 25.97 43.53 24.4401 44.48 24.1001C45.79 23.6301 46.6 23.5301 47.21 23.3801C49.02 22.9301 49.4 21.8601 49.73 22.5101C49.79 22.6301 49.85 22.7501 49.91 22.8601C50.01 23.0601 50.14 23.45 50.14 23.84C49.37 25.85 48.18 27.6501 46.68 29.1401M36.07 33.5101C34.6 33.5101 33.18 33.29 31.84 32.9C31.65 32.74 31.54 32.48 31.66 32.16C32.13 30.9501 33.51 30.47 34.61 30.37C37.05 30.13 40.25 31.9601 40.76 31.6701C41.27 31.3801 42.3 30.0401 43.82 30.1001C44.85 30.1401 44.84 30.3101 45.19 30.4501C42.66 32.3801 39.5 33.52 36.07 33.52M34.04 23.7001C33.83 24.0401 33.26 26.57 32.89 26.27C32.51 25.97 33.05 23.3401 33.16 23.1401C33.76 22.0501 35.04 22.1101 34.05 23.7001M40.19 20.72C39.89 20.98 39.13 20.89 38.75 20.59C38.37 20.3 38.99 19.8101 39.22 19.7901C39.73 19.7501 40.49 20.45 40.19 20.72ZM46.83 20.7601C46.67 20.7001 46.52 20.55 46.4 20.18C46.28 19.81 46.59 19.6 46.89 19.75C47.2 19.91 47.6 20.3701 47.6 20.6101C47.6 20.8501 46.99 20.8301 46.83 20.7601ZM47.47 21.22C47.98 21.18 48.73 21.88 48.44 22.15C48.14 22.42 47.39 22.32 47.01 22.02C46.63 21.73 47.25 21.24 47.48 21.22M31.32 27.2001C31.03 28.3501 30.69 28.7601 30.39 29.1301C30.1 29.5001 29.02 29.9601 28.34 29.9101C27.66 29.8601 27.56 28.03 27.56 27.09C27.56 26.77 27.1 27.73 26.86 25.77C26.71 24.52 25.9 25.9 25.85 25.06C25.79 24.23 25.39 24.39 24.97 23.87C24.55 23.35 24.03 23.92 23.44 24.18C22.86 24.44 23.1 24.57 22.27 24.31C22.25 24.31 22.24 24.3001 22.22 24.2901C21.46 22.4901 21.04 20.51 21.05 18.43C21.05 17.92 21.08 17.42 21.13 16.93C21.16 16.88 21.19 16.8301 21.22 16.7901C22.02 15.8501 22 15.6301 22 15.6301L22.88 15.3301C22.88 15.3301 24.28 15.5501 25.34 15.9501C26.21 16.2801 27.58 17.0201 28.38 16.7001C28.96 16.4601 29.41 16.1501 29.36 15.6701C29.3 15.0701 28.82 14.9201 28.25 15.3301C28.04 15.4801 27.59 14.42 27.23 14.47C26.88 14.52 27.67 15.7101 27.37 15.7601C27.07 15.8101 26.46 14.52 26.36 14.31C26.26 14.1 25.79 13.5801 25.37 13.9801C24.48 14.8201 23.04 14.77 22.75 14.99C21.87 15.65 21.64 14.77 21.66 14.24C21.7 14.12 21.73 14 21.77 13.87C22.06 13.55 23.09 13.45 23.45 13.69C23.84 13.95 24.12 13.62 24.27 13.47C24.43 13.32 24.37 13.0701 24.27 12.8601C24.17 12.6501 24.46 12.5 24.67 12.44C24.87 12.39 25.54 11.9201 25.81 11.7601C26.08 11.6101 27.47 11.4401 28.09 11.7601C28.71 12.0701 29.28 11.82 29.59 11.46C29.98 11 30.47 10.66 30.68 10.55C30.9 10.45 30.15 9.74006 29.52 10.5101C28.9 11.2701 28.58 11.34 28.29 11.34C28 11.34 26.26 10.9001 26.05 10.3501C25.84 9.80005 26.59 9.39006 27.24 9.08006C27.88 8.78006 29.63 8.78004 30.08 8.68004C30.99 8.48004 32.16 8.03004 32.74 8.43004C33.32 8.82004 30.29 9.51003 31.28 10.05C31.63 10.25 33.24 9.13004 33.79 8.84004C35.08 8.18004 32.54 7.95005 32.87 6.60005C33.25 5.07005 29.75 5.65005 28 5.78005C30.34 4.28005 33.12 3.42006 36.1 3.42006C43.2 3.42006 49.14 8.35005 50.71 14.97C50.72 15.3 50.67 15.5301 50.64 15.6701C50.5 16.2101 49.47 16.68 48.88 15.8C48.73 15.58 48.08 14.9701 48.1 16.0101C48.12 17.0501 49.11 17.1601 48.15 17.7901C47.19 18.4101 47.01 18.2601 46.57 18.4201C46.13 18.5801 45.69 19.65 45.8 20.22C45.91 20.79 47.28 22.37 46.26 22.3C46.02 22.28 44.23 21.0501 43.93 20.2601C43.62 19.4301 43.28 18.61 43.03 17.99C42.79 17.37 42.15 17.2001 41.61 17.5701C41.07 17.9401 41.76 18.3 41.37 19.09C40.99 19.87 40.71 20.5701 40.14 19.9201C38.67 18.2401 36.54 19.0601 36.21 17.1901C36.03 16.17 35.16 16.2701 34.43 15.69C33.7 15.12 33.29 14.81 33.16 15.22C33.05 15.58 35.46 17.4901 35.63 17.9801C35.89 18.7101 34.91 19.35 34.19 19.52C33.48 19.69 33.16 19.1201 32.47 18.3901C31.77 17.6601 31.46 17.14 31.41 17.71C31.34 18.54 32.07 19.75 32.79 20.21C33.4 20.6 34.08 20.77 33.88 21.4C33.68 22.03 33.88 21.6701 33.19 22.3501C32.51 23.0301 32.37 23.25 32.42 24.18C32.47 25.12 32.22 25.1701 32.07 25.9501C31.92 26.7301 31.58 26.0501 31.29 27.2001M23.26 10.6101C23.26 10.6101 23.33 10.54 23.34 10.52C23.61 10.21 24.15 10.14 24.53 10.09C24.9 10.03 25.4 10.22 25.46 10.47C25.52 10.72 24.52 11.17 24.34 11.34C23.82 11.82 23.01 12.79 22.53 12.9C22.38 12.94 22.25 12.9101 22.14 12.8601C22.45 12.0801 22.83 11.33 23.26 10.62M24.03 9.07005C24.23 8.78005 24.87 7.97004 24.95 7.87004C25.12 7.66004 25.45 7.61005 25.68 7.57005C25.91 7.52005 26.21 7.65006 26.25 7.83006C26.29 8.00006 26.16 8.67006 26.05 8.79006C25.73 9.12006 24.91 9.58006 24.45 9.51006C24.1 9.45006 23.96 9.18006 24.03 9.08006M71.85 18.03C69.29 14.42 57.69 0.0300469 36.09 4.69035e-05C14.49 -0.0299531 2.86 14.34 0.28 17.9401C0.17 18.09 0.08 18.23 0 18.34C0.08 18.46 0.17 18.59 0.28 18.75C2.85 22.35 14.44 36.75 36.04 36.78C57.64 36.81 69.27 22.44 71.84 18.84C71.95 18.68 72.05 18.5501 72.12 18.4401C72.05 18.33 71.95 18.1901 71.84 18.0401" fill="white"/>
</svg>
