<svg width="61" height="31" viewBox="0 0 61 31" fill="none" xmlns="http://www.w3.org/2000/svg">
	<path d="M55.65 3.19606C51.35 -0.203937 45.64 -0.273938 43.55 0.226062L43.31 0.28606C40.9 0.85606 37.07 1.79606 32.58 7.36606C32.56 7.39606 32.53 7.42606 32.5 7.45606L32.44 7.52605C32.4 7.58605 32.36 7.65605 32.36 7.74605C32.36 7.81605 32.38 7.87605 32.41 7.93605L32.51 8.10605C33.07 9.04605 33.78 10.2561 34.38 11.3761C34.38 11.3861 34.39 11.3961 34.4 11.4061C34.46 11.5261 34.59 11.6161 34.74 11.6161C34.84 11.6161 34.94 11.5761 35.01 11.5061C35.04 11.4661 35.07 11.4261 35.09 11.3961C39.07 5.88606 42.2 5.12605 44.32 4.63605L44.57 4.57605C45.67 4.31605 49.85 4.32606 52.86 6.70606C55.21 8.56606 56.41 11.5261 56.41 15.4961C56.41 22.166 53.17 24.7661 50.45 25.7861C46.24 27.3661 42.19 25.2561 42.16 25.2361L41.98 25.1461C39.66 24.1361 36.21 22.0461 32.95 15.5061C26.39 2.32606 20.9 1.08606 17.27 0.266055L17.08 0.226062C15.43 -0.153938 9.67998 -0.413946 5.16998 3.18605C2.80998 5.06605 0 8.72605 0 15.4661C0 19.5761 0.84001 22.2861 3.01001 25.1361C3.49001 25.7861 8.34999 32.0261 17.74 30.2261C19.24 29.9361 21.28 29.2161 23.52 27.5461L25.59 29.4061C25.72 29.5261 25.94 29.5161 26.06 29.3861C26.12 29.3261 26.14 29.2461 26.14 29.1661V29.1361L27.63 19.9561V19.8561C27.63 19.7661 27.59 19.6761 27.52 19.6161C27.46 19.5561 27.38 19.5361 27.3 19.5361H27.24L27.14 19.5561L18.35 22.0161L18.19 22.0461C18.13 22.0561 18.07 22.0961 18.02 22.1461C17.89 22.2861 17.9 22.4961 18.05 22.6261L18.15 22.7261L20.12 24.5061C18.85 25.3261 17.74 25.7061 16.89 25.8761C10.09 27.1761 6.73999 22.7161 6.60999 22.5461L6.56 22.4861C4.98 20.4161 4.45001 18.6461 4.45001 15.4961C4.45001 11.5061 5.62 8.54606 7.94 6.70606C10.88 4.35606 14.93 4.34605 16.08 4.60605L16.28 4.65605C19.26 5.32606 23.33 6.25606 28.95 17.5361C31.87 23.3961 35.52 27.2261 40.12 29.2461C40.71 29.5461 43.5 30.8661 47.12 30.8661C48.64 30.8661 50.3 30.6361 52 29.9961C54.66 29.0061 60.87 25.606 60.87 15.526C60.87 8.78605 58.02 5.12606 55.62 3.23606" fill="white"/>
</svg>
