<svg width="51" height="51" viewBox="0 0 51 51" fill="none" xmlns="http://www.w3.org/2000/svg">
	<path d="M34.2949 28.175H16.4249C16.3149 28.175 16.2349 28.2751 16.2349 28.3951V33.765C16.2349 33.885 16.3249 33.985 16.4249 33.985H34.2949C34.4049 33.985 34.4949 33.885 34.4949 33.765V28.3951C34.4949 28.2751 34.4049 28.175 34.2949 28.175Z" fill="white"/>
	<path d="M34.2949 16.745H16.4249C16.3149 16.745 16.2349 16.845 16.2349 16.965V22.335C16.2349 22.455 16.3249 22.555 16.4249 22.555H34.2949C34.4049 22.555 34.4949 22.455 34.4949 22.335V16.965C34.4949 16.845 34.4049 16.745 34.2949 16.745Z" fill="white"/>
	<path d="M34.0448 8.625L25.4648 0.045C25.4048 -0.015 25.3148 -0.015 25.2548 0.045L16.6748 8.625C16.5848 8.715 16.6448 8.875 16.7748 8.875H33.9348C34.0648 8.875 34.1348 8.715 34.0448 8.625Z" fill="white"/>
	<path d="M42.0947 34.045L50.6747 25.4651C50.7347 25.4051 50.7347 25.3151 50.6747 25.2551L42.0947 16.675C42.0047 16.585 41.8447 16.6451 41.8447 16.7751V33.935C41.8447 34.065 42.0047 34.135 42.0947 34.045Z" fill="white"/>
	<path d="M16.6748 42.095L25.2548 50.675C25.3148 50.735 25.4048 50.735 25.4648 50.675L34.0448 42.095C34.1348 42.005 34.0748 41.845 33.9448 41.845H16.7848C16.6548 41.845 16.5848 42.005 16.6748 42.095Z" fill="white"/>
	<path d="M8.62499 16.675L0.045 25.255C-0.015 25.315 -0.015 25.405 0.045 25.465L8.62499 34.0449C8.71499 34.1349 8.87499 34.075 8.87499 33.945V16.785C8.87499 16.655 8.71499 16.585 8.62499 16.675Z" fill="white"/>
</svg>
