<svg width="67" height="50" viewBox="0 0 67 50" fill="none" xmlns="http://www.w3.org/2000/svg">
	<path d="M0.430267 35.76H15.0903C15.2903 35.76 15.4503 35.6 15.4503 35.4C15.4503 35.31 15.4103 35.22 15.3503 35.16L15.3303 35.14L8.03027 25.7L7.96027 25.62C7.89027 25.55 7.80028 25.5 7.69028 25.5C7.60028 25.5 7.52029 25.54 7.45029 25.59L7.41028 25.64L7.34027 25.72L0.220276 35.06L0.110291 35.19C0.0702905 35.25 0.050293 35.32 0.050293 35.39C0.050293 35.59 0.210278 35.75 0.410278 35.75" fill="white"/>
	<path d="M15.05 37.0901H0.360016C0.160016 37.0901 0 37.2501 0 37.4501V48.9501C0 49.1501 0.160016 49.3101 0.360016 49.3101H5.09V42.0801C5.09 41.8801 5.25001 41.7201 5.45001 41.7201H9.84C10.04 41.7201 10.2 41.8801 10.2 42.0801V49.3101H15.05C15.25 49.3101 15.41 49.1501 15.41 48.9501V37.4501C15.41 37.2501 15.25 37.0901 15.05 37.0901Z" fill="white"/>
	<path d="M64.5102 38.7901C64.5102 38.9801 64.3502 39.1401 64.1502 39.1401H59.8102C59.6102 39.1401 59.4502 38.9901 59.4502 38.7901V36.1501C59.4502 35.9601 59.6102 35.8001 59.8102 35.8001H64.1502C64.3502 35.8001 64.5102 35.9501 64.5102 36.1501V38.7901ZM64.5102 43.6701C64.5102 43.8601 64.3502 44.0201 64.1502 44.0201H59.8102C59.6102 44.0201 59.4502 43.8701 59.4502 43.6701V41.0301C59.4502 40.8401 59.6102 40.6801 59.8102 40.6801H64.1502C64.3502 40.6801 64.5102 40.8301 64.5102 41.0301V43.6701ZM57.8702 38.7901C57.8702 38.9801 57.7102 39.1401 57.5102 39.1401H53.1702C52.9702 39.1401 52.8102 38.9901 52.8102 38.7901V36.1501C52.8102 35.9601 52.9702 35.8001 53.1702 35.8001H57.5102C57.7102 35.8001 57.8702 35.9501 57.8702 36.1501V38.7901ZM57.8702 43.6701C57.8702 43.8601 57.7102 44.0201 57.5102 44.0201H53.1702C52.9702 44.0201 52.8102 43.8701 52.8102 43.6701V41.0301C52.8102 40.8401 52.9702 40.6801 53.1702 40.6801H57.5102C57.7102 40.6801 57.8702 40.8301 57.8702 41.0301V43.6701ZM65.8202 34.0801H51.2802C51.0802 34.0801 50.9302 34.2301 50.9302 34.4301V49.1101C50.9302 49.3001 51.0902 49.4601 51.2802 49.4601H65.8202C66.0202 49.4601 66.1802 49.3101 66.1802 49.1101V34.4301C66.1802 34.2401 66.0202 34.0801 65.8202 34.0801Z" fill="white"/>
	<path d="M29.95 10.44C29.95 10.54 29.8699 10.63 29.7599 10.63H26.4999C26.3999 10.63 26.3099 10.55 26.3099 10.44V6.81C26.3099 6.71 26.3899 6.62 26.4999 6.62H29.7599C29.8599 6.62 29.95 6.7 29.95 6.81V10.44ZM29.95 18.77C29.95 18.87 29.8699 18.96 29.7599 18.96H26.4999C26.3999 18.96 26.3099 18.88 26.3099 18.77V15.14C26.3099 15.04 26.3899 14.96 26.4999 14.96H29.7599C29.8599 14.96 29.95 15.04 29.95 15.14V18.77ZM29.95 27.11C29.95 27.21 29.8699 27.3 29.7599 27.3H26.4999C26.3999 27.3 26.3099 27.22 26.3099 27.11V23.48C26.3099 23.38 26.3899 23.29 26.4999 23.29H29.7599C29.8599 23.29 29.95 23.37 29.95 23.48V27.11ZM29.95 35.45C29.95 35.56 29.8699 35.64 29.7599 35.64H26.4999C26.3999 35.64 26.3099 35.56 26.3099 35.45V31.82C26.3099 31.72 26.3899 31.63 26.4999 31.63H29.7599C29.8599 31.63 29.95 31.71 29.95 31.82V35.45ZM29.95 43.79C29.95 43.89 29.8699 43.98 29.7599 43.98H26.4999C26.3999 43.98 26.3099 43.9 26.3099 43.79V40.16C26.3099 40.06 26.3899 39.97 26.4999 39.97H29.7599C29.8599 39.97 29.95 40.05 29.95 40.16V43.79ZM23.5599 10.44C23.5599 10.54 23.4799 10.63 23.3699 10.63H20.11C20.01 10.63 19.92 10.55 19.92 10.44V6.81C19.92 6.71 20 6.62 20.11 6.62H23.3699C23.4699 6.62 23.5599 6.7 23.5599 6.81V10.44ZM23.5599 18.77C23.5599 18.87 23.4799 18.96 23.3699 18.96H20.11C20.01 18.96 19.92 18.88 19.92 18.77V15.14C19.92 15.04 20 14.96 20.11 14.96H23.3699C23.4699 14.96 23.5599 15.04 23.5599 15.14V18.77ZM23.5599 27.11C23.5599 27.21 23.4799 27.3 23.3699 27.3H20.11C20.01 27.3 19.92 27.22 19.92 27.11V23.48C19.92 23.38 20 23.29 20.11 23.29H23.3699C23.4699 23.29 23.5599 23.37 23.5599 23.48V27.11ZM23.5599 35.45C23.5599 35.56 23.4799 35.64 23.3699 35.64H20.11C20.01 35.64 19.92 35.56 19.92 35.45V31.82C19.92 31.72 20 31.63 20.11 31.63H23.3699C23.4699 31.63 23.5599 31.71 23.5599 31.82V35.45ZM23.5599 43.79C23.5599 43.89 23.4799 43.98 23.3699 43.98H20.11C20.01 43.98 19.92 43.9 19.92 43.79V40.16C19.92 40.06 20 39.97 20.11 39.97H23.3699C23.4699 39.97 23.5599 40.05 23.5599 40.16V43.79ZM32.0199 0H17.7899C17.5999 0 17.4399 0.150006 17.4399 0.350006V48.99C17.4399 49.18 17.5999 49.34 17.7899 49.34H32.0199C32.2099 49.34 32.3699 49.18 32.3699 48.99V0.350006C32.3699 0.160006 32.2099 0 32.0199 0Z" fill="white"/>
	<path d="M65.87 29.39H51.2299C51.0698 29.39 50.9399 29.5198 50.9399 29.68V32.61C50.9399 32.7702 51.0698 32.9 51.2299 32.9H65.87C66.0301 32.9 66.1599 32.7702 66.1599 32.61V29.68C66.1599 29.5198 66.0301 29.39 65.87 29.39Z" fill="white"/>
	<path d="M47.5903 24.04C47.5903 24.23 47.4303 24.39 47.2403 24.39H43.0003C42.8103 24.39 42.6503 24.24 42.6503 24.04V21.39C42.6503 21.19 42.8103 21.04 43.0003 21.04H47.2403C47.4303 21.04 47.5903 21.19 47.5903 21.39V24.04ZM47.5903 28.95C47.5903 29.14 47.4303 29.3 47.2403 29.3H43.0003C42.8103 29.3 42.6503 29.14 42.6503 28.95V26.3C42.6503 26.11 42.8103 25.95 43.0003 25.95H47.2403C47.4303 25.95 47.5903 26.1 47.5903 26.3V28.95ZM47.5903 33.86C47.5903 34.05 47.4303 34.21 47.2403 34.21H43.0003C42.8103 34.21 42.6503 34.05 42.6503 33.86V31.2C42.6503 31.01 42.8103 30.85 43.0003 30.85H47.2403C47.4303 30.85 47.5903 31 47.5903 31.2V33.86ZM47.5903 38.76C47.5903 38.95 47.4303 39.11 47.2403 39.11H43.0003C42.8103 39.11 42.6503 38.96 42.6503 38.76V36.11C42.6503 35.92 42.8103 35.76 43.0003 35.76H47.2403C47.4303 35.76 47.5903 35.91 47.5903 36.11V38.76ZM47.5903 43.67C47.5903 43.86 47.4303 44.02 47.2403 44.02H43.0003C42.8103 44.02 42.6503 43.87 42.6503 43.67V41.02C42.6503 40.83 42.8103 40.67 43.0003 40.67H47.2403C47.4303 40.67 47.5903 40.82 47.5903 41.02V43.67ZM41.1203 23.11V28.96C41.1203 29.15 40.9603 29.31 40.7703 29.31H36.5303C36.3403 29.31 36.1803 29.15 36.1803 28.96V28.22C36.1803 28.22 36.1903 28.13 36.2103 28.09C36.2103 28.07 36.2103 28.07 36.2303 28.05C36.2303 28.03 36.2503 28.02 36.2603 28C36.2603 27.98 36.2903 27.96 36.3003 27.94C36.8403 27.16 39.2903 24.15 40.3203 22.89L40.4203 22.77C40.5003 22.68 40.6103 22.62 40.7303 22.62C40.9303 22.62 41.0803 22.76 41.1203 22.94V23.1V23.11ZM41.1103 33.86C41.1103 34.05 40.9503 34.21 40.7603 34.21H36.5203C36.3303 34.21 36.1703 34.05 36.1703 33.86V31.2C36.1703 31.01 36.3303 30.85 36.5203 30.85H40.7603C40.9503 30.85 41.1103 31 41.1103 31.2V33.86ZM41.1103 38.76C41.1103 38.95 40.9503 39.11 40.7603 39.11H36.5203C36.3303 39.11 36.1703 38.96 36.1703 38.76V36.11C36.1703 35.92 36.3303 35.76 36.5203 35.76H40.7603C40.9503 35.76 41.1103 35.91 41.1103 36.11V38.76ZM41.1103 43.67C41.1103 43.86 40.9503 44.02 40.7603 44.02H36.5203C36.3303 44.02 36.1703 43.87 36.1703 43.67V41.02C36.1703 40.83 36.3303 40.67 36.5203 40.67H40.7603C40.9503 40.67 41.1103 40.82 41.1103 41.02V43.67ZM43.3203 18.82L43.4203 18.69C44.3803 17.46 45.9903 15.48 46.7803 14.51L46.8803 14.39C46.9603 14.3 47.0703 14.24 47.1903 14.24C47.3903 14.24 47.5403 14.38 47.5803 14.56V19.05C47.5803 19.27 47.4103 19.44 47.1903 19.45C47.1903 19.45 47.1803 19.45 47.1703 19.45C47.1603 19.45 47.1603 19.45 47.1503 19.45H43.6603C43.6603 19.45 43.6503 19.45 43.6403 19.45C43.6303 19.45 43.6303 19.45 43.6203 19.45C43.4103 19.44 43.2303 19.27 43.2303 19.05C43.2303 18.96 43.2603 18.88 43.3103 18.81M49.2103 9.18002C49.1603 9.02002 49.0203 8.91003 48.8503 8.91003C48.7703 8.91003 48.7103 8.94003 48.6503 8.98003C48.6503 8.98003 48.6303 8.99003 48.6203 9.00003L48.5003 9.15002L34.5103 26.89L34.4403 26.98C34.3703 27.05 34.3203 27.15 34.3203 27.26V49.06C34.3203 49.25 34.4803 49.41 34.6703 49.41H48.8903C49.0803 49.41 49.2403 49.26 49.2403 49.06V9.33003C49.2403 9.28003 49.2303 9.23002 49.2103 9.18002Z" fill="white"/>
</svg>
