<svg width="37" height="50" viewBox="0 0 37 50" fill="none" xmlns="http://www.w3.org/2000/svg">
	<path d="M33.646 7.71C32.686 7.29 31.476 7.44 30.306 7.91C25.916 9.69 22.936 10.33 18.316 8.88C15.406 7.97 12.686 6.06 9.47597 7.23C7.34597 8 5.35601 8.73 2.94601 8.71L1.55599 1.57H34.656L33.656 7.71H33.646ZM22.436 28.91C22.436 28.91 20.826 30.56 18.216 30.38C15.596 30.56 13.996 28.91 13.996 28.91C11.346 26.26 12.296 22.97 13.216 21.27C13.786 20.2 17.856 14.09 18.206 13.57V13.53C18.206 13.53 18.206 13.53 18.226 13.55V13.53L18.236 13.57C18.576 14.09 22.656 20.2 23.226 21.27C24.146 22.97 25.096 26.26 22.446 28.91M36.096 0.139999C36.016 0.0499994 35.906 0 35.776 0H0.415977C0.295977 0 0.185969 0.0499994 0.0959694 0.139999C0.0159694 0.239999 -0.0139964 0.360001 0.00600356 0.470001L5.94601 36.4C5.97601 36.6 6.15598 36.75 6.35598 36.75H13.646L14.146 42.6H11.0759L18.216 49.74L25.376 42.58H22.306L22.806 36.74H30.226C30.426 36.74 30.6059 36.59 30.6359 36.39L36.196 0.459999C36.216 0.339999 36.176 0.220001 36.106 0.130001" fill="black"/>
</svg>
