<svg width="53" height="45" viewBox="0 0 53 45" fill="none" xmlns="http://www.w3.org/2000/svg">
<path d="M38.5996 33.94C36.8096 33.94 35.3596 32.49 35.3596 30.7C35.3596 28.91 36.8096 27.4601 38.5996 27.4601C40.3896 27.4601 41.8496 28.91 41.8496 30.7C41.8496 32.49 40.3996 33.94 38.5996 33.94ZM52.6896 32.4301C51.4596 30.7701 43.5396 20.67 32.4296 20.67C22.7796 20.67 12.4596 29.42 12.4596 29.42C12.4596 29.42 8.57964 21.48 0.649643 20.72C0.599643 20.72 0.549634 20.72 0.499634 20.72H0.449646C0.279646 20.72 0.129643 20.89 0.149643 21.03C0.169643 21.17 0.269638 21.32 0.269638 21.32C1.28964 23.02 3.89964 27.84 3.89964 32.67C3.89964 37.5 1.27964 42.35 0.259644 44.04L0.189636 44.15C0.159636 44.2 0.139648 44.25 0.139648 44.32C0.139648 44.49 0.269642 44.62 0.429642 44.63H0.519638C0.519638 44.63 0.56964 44.63 0.59964 44.62C8.55964 43.88 12.4496 35.92 12.4496 35.92C12.4496 35.92 22.7696 44.67 32.4196 44.67C43.5296 44.67 51.4596 34.57 52.6796 32.91C52.7096 32.87 52.7396 32.83 52.7596 32.8C52.7696 32.76 52.7896 32.7201 52.7896 32.6801C52.7896 32.6401 52.7796 32.59 52.7596 32.56C52.7396 32.53 52.7096 32.49 52.6796 32.45" fill="white"/>
<path d="M11.73 11.61C11.73 11.61 11.78 11.5501 11.82 11.5201C11.87 11.4901 11.93 11.4601 11.99 11.4601C12.07 11.4601 12.15 11.49 12.21 11.55C12.21 11.55 12.21 11.56 12.22 11.56C18.28 17.33 24.63 12.65 25.95 11.56L26.08 11.44C26.08 11.44 26.16 11.42 26.2 11.42C26.25 11.42 26.29 11.42 26.33 11.44L26.46 11.56C27.78 12.65 34.13 17.33 40.19 11.56C40.19 11.56 40.19 11.56 40.2 11.55C40.26 11.5 40.33 11.4601 40.41 11.4601C40.48 11.4601 40.54 11.4901 40.59 11.5201C40.63 11.5401 40.65 11.57 40.68 11.61C41.85 12.76 46.93 17.13 52.3 12.47C52.36 12.41 52.39 12.34 52.39 12.25V10.03C52.39 9.85003 52.25 9.71005 52.07 9.71005C52.05 9.71005 52.03 9.71003 52 9.72003C51.95 9.74003 51.9 9.77005 51.84 9.80005C50.19 10.63 45.07 12.59 40.43 8.20004C40.39 8.16004 40.34 8.12004 40.29 8.07004C40.25 8.05004 40.21 8.04004 40.15 8.04004C40.12 8.04004 40.08 8.04003 40.05 8.06003C39.98 8.08003 39.93 8.12005 39.89 8.18005C38.51 9.23005 32.15 13.54 26.5 8.26004L26.42 8.18005C26.36 8.12005 26.28 8.09003 26.19 8.09003C26.11 8.09003 26.03 8.12005 25.97 8.18005L25.88 8.26004C20.23 13.54 13.87 9.24005 12.48 8.18005C12.44 8.12005 12.39 8.08003 12.32 8.06003C12.29 8.04003 12.25 8.04004 12.22 8.04004C12.17 8.04004 12.13 8.04004 12.09 8.07004C12.05 8.11004 12 8.16004 11.95 8.20004C7.31001 12.59 2.19001 10.63 0.540009 9.80005C0.480009 9.77005 0.430005 9.74003 0.380005 9.72003C0.350005 9.72003 0.340007 9.71005 0.320007 9.71005C0.140007 9.71005 0 9.85003 0 10.03V12.25C0 12.34 0.0400116 12.42 0.0900116 12.47C5.45001 17.13 10.53 12.77 11.71 11.61" fill="white"/>
<path d="M0.400024 1.68001C0.400024 1.68001 0.360027 1.67 0.340027 1.67C0.160027 1.67 0.0200195 1.81001 0.0200195 1.99001V4.2C0.0200195 4.29 0.0600159 4.37001 0.110016 4.43001C5.47002 9.09001 10.55 4.71999 11.73 3.56999C11.75 3.52999 11.78 3.5 11.81 3.48C11.86 3.45 11.92 3.42 11.99 3.42C12.07 3.42 12.15 3.44999 12.21 3.50999C12.21 3.50999 12.22 3.52 12.23 3.52C18.29 9.3 24.64 4.62 25.96 3.52L26.09 3.39998C26.09 3.39998 26.17 3.37999 26.21 3.37999C26.25 3.37999 26.3 3.37998 26.34 3.39998L26.47 3.52C27.79 4.62 34.14 9.3 40.2 3.52C40.2 3.52 40.2 3.51999 40.21 3.50999C40.27 3.45999 40.34 3.42 40.43 3.42C40.5 3.42 40.56 3.44 40.61 3.48C40.65 3.5 40.67 3.53999 40.7 3.56999C41.87 4.71999 46.95 9.09001 52.31 4.43001C52.37 4.38001 52.4 4.29 52.4 4.2V1.99001C52.4 1.81001 52.26 1.67 52.08 1.67C52.06 1.67 52.04 1.67001 52.01 1.68001C51.96 1.71001 51.91 1.72999 51.85 1.75999C50.2 2.58999 45.08 4.54999 40.44 0.159988C40.4 0.119988 40.35 0.0799988 40.31 0.0299988C40.27 0.00999878 40.23 0 40.17 0C40.14 0 40.1 -5.49294e-06 40.07 0.00999451C40 0.0399945 39.95 0.0799994 39.91 0.139999C38.53 1.19 32.17 5.48999 26.52 0.219986L26.44 0.139999C26.38 0.0899994 26.3 0.0399933 26.21 0.0399933C26.13 0.0399933 26.04 0.0799994 25.99 0.139999L25.9 0.219986C20.25 5.49999 13.89 1.2 12.5 0.139999C12.46 0.0899994 12.41 0.0399945 12.34 0.00999451C12.31 0.00999451 12.28 0 12.24 0C12.2 0 12.15 0.00999878 12.11 0.0299988C12.07 0.0799988 12.02 0.119988 11.97 0.159988C7.33002 4.54999 2.21003 2.58999 0.560028 1.75999C0.500028 1.72999 0.450024 1.71001 0.400024 1.68001Z" fill="white"/>
</svg>
