<svg width="90" height="35" viewBox="0 0 90 35" fill="none" xmlns="http://www.w3.org/2000/svg">
	<path d="M75.2483 2.96803C75.2483 1.33011 76.5784 0 78.2163 0C79.8542 0 81.1734 1.33011 81.1734 2.96803C81.1734 4.60594 79.8432 5.93606 78.2163 5.93606C76.5894 5.93606 75.2483 4.60594 75.2483 2.96803Z" fill="white"/>
	<path d="M15.69 2.96803C15.69 1.33011 14.3598 0 12.7219 0C11.084 0 9.76489 1.33011 9.76489 2.96803C9.76489 4.60594 11.095 5.93606 12.7219 5.93606C14.3489 5.93606 15.69 4.60594 15.69 2.96803Z" fill="white"/>
	<path d="M81.6798 7.07899C83.6915 7.26587 85.2744 8.95874 85.2744 11.0144V19.2369C85.2744 19.8745 84.7578 20.3912 84.1202 20.3912C83.4826 20.3912 82.966 19.8745 82.966 19.2369V12.1796C82.966 11.9158 82.889 11.553 82.4053 11.553C82.0646 11.553 81.9986 11.9048 81.9876 12.1356V33.3076C81.9876 34.22 81.2511 34.9565 80.3387 34.9565C79.4263 34.9565 78.6788 34.22 78.6788 33.3076V21.1057C78.6788 20.9738 78.6348 20.622 78.2061 20.622C77.7884 20.622 77.7334 20.9738 77.7334 21.1057V33.3076C77.7334 34.22 76.9969 34.9565 76.0845 34.9565C75.1721 34.9565 74.4356 34.22 74.4356 33.3076V12.1356C74.4356 11.9048 74.3477 11.553 74.0179 11.553C73.5342 11.553 73.4573 11.9158 73.4573 12.1796V19.2369C73.4573 19.8745 72.9406 20.3912 72.303 20.3912C71.6655 20.3912 71.1598 19.8745 71.1598 19.2369V11.0144C71.1598 8.94775 72.7427 7.25488 74.7544 7.07899C74.8204 7.07899 74.8973 7.05701 74.9743 7.05701H81.46C81.5479 7.05701 81.6139 7.05701 81.6908 7.07899" fill="white"/>
	<path d="M57.6054 4.52861C57.6054 2.97864 56.3523 1.71448 54.8023 1.71448C53.2523 1.71448 51.9882 2.97864 51.9882 4.52861C51.9882 6.07859 53.2413 7.34274 54.8023 7.34274C56.3633 7.34274 57.6054 6.08958 57.6054 4.52861Z" fill="white"/>
	<path d="M49.1413 10.8932L46.8108 18.5002C46.8108 18.5002 46.3931 19.8963 47.5803 20.237C48.7565 20.5888 49.1193 19.2257 49.1193 19.2257L50.9991 12.8829C50.9991 12.8829 51.098 12.3992 51.4717 12.4982C51.8345 12.6081 51.7026 13.1248 51.7026 13.1248L48.4268 25.0189H51.4717V33.5382C51.4717 34.3407 52.1313 35.0003 52.9338 35.0003C53.7362 35.0003 54.3958 34.3407 54.3958 33.5382V25.0189H55.2312V33.5382C55.2312 34.3407 55.8798 35.0003 56.6933 35.0003C57.5067 35.0003 58.1553 34.3407 58.1553 33.5382V25.0189H61.2003L57.9245 13.1248C57.9245 13.1248 57.7925 12.5971 58.1553 12.4982C58.5181 12.3883 58.628 12.8829 58.628 12.8829L60.5077 19.2257C60.5077 19.2257 60.8595 20.5888 62.0357 20.237C63.223 19.8853 62.8052 18.5002 62.8052 18.5002L60.4748 10.8932C60.4748 10.8932 59.6393 8.6947 57.7926 8.6947H51.8345C49.9877 8.6947 49.1523 10.8932 49.1523 10.8932" fill="white"/>
	<path d="M40.787 4.52861C40.787 2.97864 39.5338 1.71448 37.9838 1.71448C36.4338 1.71448 35.1697 2.97864 35.1697 4.52861C35.1697 6.07859 36.4228 7.34274 37.9838 7.34274C39.5448 7.34274 40.787 6.08958 40.787 4.52861Z" fill="white"/>
	<path d="M32.3116 10.8932L29.9812 18.5002C29.9812 18.5002 29.5635 19.8963 30.7507 20.237C31.9269 20.5888 32.2787 19.2257 32.2787 19.2257L34.1584 12.8829C34.1584 12.8829 34.2573 12.3992 34.6311 12.4982C34.9939 12.6081 34.8619 13.1248 34.8619 13.1248L31.5861 25.0189H34.6311V33.5382C34.6311 34.3407 35.2907 35.0003 36.0931 35.0003C36.8956 35.0003 37.5552 34.3407 37.5552 33.5382V25.0189H38.3906V33.5382C38.3906 34.3407 39.0392 35.0003 39.8526 35.0003C40.6661 35.0003 41.3147 34.3407 41.3147 33.5382V25.0189H44.3596L41.0838 13.1248C41.0838 13.1248 40.9409 12.5971 41.3147 12.4982C41.6774 12.3883 41.7874 12.8829 41.7874 12.8829L43.6671 19.2257C43.6671 19.2257 44.0299 20.5888 45.2061 20.237C46.3933 19.8853 45.9756 18.5002 45.9756 18.5002L43.6451 10.8932C43.6451 10.8932 42.8097 8.6947 40.9629 8.6947H35.0049C33.1581 8.6947 32.3226 10.8932 32.3226 10.8932" fill="white"/>
	<path d="M67.0478 20.2486C68.3449 20.2486 69.3893 19.2043 69.3893 17.9071C69.3893 16.61 68.3449 15.5657 67.0478 15.5657C65.7507 15.5657 64.7064 16.61 64.7064 17.9071C64.7064 19.2043 65.7507 20.2486 67.0478 20.2486Z" fill="white"/>
	<path d="M61.4419 27.5138C61.332 27.7886 61.233 28.3713 61.7827 28.6241C62.4313 28.9209 62.783 28.2943 62.783 28.2943L64.0582 24.238C64.0582 24.238 64.278 23.9632 64.278 24.238V33.7797C64.278 34.4392 64.8167 34.9779 65.4762 34.9779C66.1358 34.9779 66.6744 34.4392 66.6744 33.7797V30.0092C66.6744 30.0092 66.6085 29.4815 67.0372 29.4815C67.4659 29.4815 67.4 30.0092 67.4 30.0092V33.7797C67.4 34.4392 67.9386 34.9779 68.5982 34.9779C69.2577 34.9779 69.7964 34.4392 69.7964 33.7797V24.238C69.7964 23.9522 69.9393 24.161 69.9393 24.161L70.9396 26.9312C70.9396 26.9312 71.3683 28.1734 71.5002 28.2284C71.9509 28.4152 72.4676 28.2064 72.6545 27.7447C72.7754 27.4479 72.7314 27.1291 72.5555 26.8872C72.5226 26.7883 71.0715 23.2047 70.8956 22.71C70.368 21.171 69.4116 21.182 68.4882 21.16C67.5649 21.1381 67.0152 21.16 67.0152 21.16C67.0152 21.16 66.4216 21.1381 65.2014 21.171C63.9812 21.204 63.5965 21.8306 62.2554 25.2933C62.0575 25.788 61.4199 27.4039 61.4089 27.5028L61.4419 27.5138Z" fill="white"/>
	<path d="M9.25984 7.07899C7.24817 7.26587 5.66522 8.95874 5.66522 11.0144V19.2369C5.66522 19.8745 6.18188 20.3912 6.81946 20.3912C7.45703 20.3912 7.97369 19.8745 7.97369 19.2369V12.1796C7.97369 11.9158 8.05064 11.553 8.53432 11.553C8.8641 11.553 8.94105 11.9048 8.95204 12.1356V33.3076C8.95204 34.22 9.68856 34.9565 10.601 34.9565C11.5133 34.9565 12.2499 34.22 12.2499 33.3076V21.1057C12.2499 20.9738 12.3048 20.622 12.7225 20.622C13.1403 20.622 13.1952 20.9738 13.1952 21.1057V33.3076C13.1952 34.22 13.9317 34.9565 14.8441 34.9565C15.7565 34.9565 16.493 34.22 16.493 33.3076V12.1356C16.493 11.9048 16.581 11.553 16.9108 11.553C17.3944 11.553 17.4714 11.9158 17.4714 12.1796V19.2369C17.4714 19.8745 17.9881 20.3912 18.6256 20.3912C19.2632 20.3912 19.7799 19.8745 19.7799 19.2369V11.0144C19.7799 8.94775 18.1969 7.25488 16.1852 7.07899C16.1193 7.07899 16.0423 7.05701 15.9654 7.05701H9.47969C9.39175 7.05701 9.32579 7.05701 9.24885 7.07899" fill="white"/>
	<path d="M6.67664 20.4453L4.03839 34.4061" stroke="white" stroke-width="1.18233" stroke-miterlimit="10" stroke-linecap="round"/>
	<path d="M21.1981 19.0284C21.0442 18.7866 20.7804 18.6327 20.4726 18.6327C19.9999 18.6327 19.6152 19.0174 19.6152 19.4791C19.6152 19.611 19.7031 19.8529 19.7031 19.8529L22.0665 24.1181C22.0665 24.1181 22.2095 24.4149 22.2095 24.6787V33.8356C22.2095 34.4732 22.7261 34.9898 23.3637 34.9898C24.0013 34.9898 24.5069 34.4732 24.5069 33.8356V30.219C24.5069 30.219 24.441 29.7133 24.8587 29.7133C25.2764 29.7133 25.2105 30.219 25.2105 30.219V33.8356C25.2105 34.4732 25.7271 34.9898 26.3647 34.9898C27.0023 34.9898 27.5189 34.4732 27.5189 33.8356V24.6787C27.5189 24.4149 27.6618 24.1181 27.6618 24.1181L29.8384 20.1827C29.8384 20.1827 30.1022 19.611 30.1022 19.4791C30.1022 19.0064 29.7175 18.6327 29.2448 18.6327C28.937 18.6327 28.6732 18.7976 28.5193 19.0284C28.4533 19.0834 27.354 21.0291 27.0023 21.3809C26.6175 21.7656 26.2768 21.7216 26.2768 21.7216H23.4406C23.4406 21.7216 23.0999 21.7656 22.7151 21.3809C22.3524 21.0181 21.2641 19.0724 21.1981 19.0174V19.0284Z" fill="white"/>
	<path d="M24.858 20.2486C26.1551 20.2486 27.1994 19.2043 27.1994 17.9071C27.1994 16.61 26.1551 15.5657 24.858 15.5657C23.5608 15.5657 22.5165 16.61 22.5165 17.9071C22.5165 19.2043 23.5608 20.2486 24.858 20.2486Z" fill="white"/>
	<path d="M24.8585 23.5354L27.5078 25.4591L28.7609 30.0871H24.8585H20.9561L22.2203 25.4591L24.8585 23.5354Z" fill="white"/>
</svg>
