<svg width="42" height="36" viewBox="0 0 42 36" fill="none" xmlns="http://www.w3.org/2000/svg">
	<path d="M14.0887 33.7497V34.8317C14.0887 34.8317 14.0887 34.8475 14.0887 34.8554C14.0887 34.8633 14.0887 34.8711 14.0887 34.879C14.0966 35.1476 14.3178 35.3608 14.5863 35.3687C14.5863 35.3687 14.5863 35.3687 14.5942 35.3687C14.6021 35.3687 14.6021 35.3687 14.61 35.3687H27.3088C27.3088 35.3687 27.3088 35.3687 27.3167 35.3687C27.3167 35.3687 27.3167 35.3687 27.3246 35.3687C27.601 35.3687 27.8221 35.1397 27.8221 34.8632V33.6392C34.9691 31.2937 40.3235 25.505 41.5002 18.4448C41.5002 18.429 41.5002 18.4132 41.5002 18.4053C41.5002 18.3816 41.5002 18.3579 41.5002 18.3342C41.5002 18.0499 41.2712 17.8209 40.9869 17.8209H0.51333C0.229028 17.8209 0 18.0499 0 18.3342L0.0236909 18.5633C1.26356 25.6945 6.76007 31.5148 14.0572 33.7655" fill="black"/>
	<path d="M27.8221 0.525966C27.6563 0.762885 23.7471 6.39364 27.909 10.9425C29.8201 13.0353 29.6543 14.8753 29.1094 16.1231H31.7786C32.3157 14.283 32.0945 11.977 29.9307 9.60784C26.8586 6.25149 29.9702 1.71845 30.0176 1.64738C30.3808 1.13406 30.1913 0.462787 29.5832 0.154793C28.9751 -0.1532 28.1933 0.0126434 27.8221 0.525966Z" fill="black"/>
	<path d="M21.0541 16.1231H23.7233C24.2604 14.283 24.0392 11.977 21.8675 9.60784C18.7954 6.25149 21.8991 1.71845 21.9544 1.64738C22.3176 1.13406 22.1281 0.470685 21.52 0.154793C20.9198 -0.1532 20.1301 0.0126434 19.7668 0.525966C19.601 0.762885 15.6839 6.39364 19.8537 10.9425C21.7648 13.0353 21.599 14.8753 21.0541 16.1231Z" fill="black"/>
	<path d="M11.7191 0.525966C11.5532 0.762885 7.63618 6.39364 11.8059 10.9425C13.7171 13.0353 13.5512 14.8753 13.0063 16.1231H15.6756C16.2126 14.283 15.9915 11.977 13.8198 9.60784C10.7477 6.25149 13.8592 1.71845 13.9066 1.64738C14.2699 1.13406 14.0725 0.462787 13.4723 0.154793C12.8721 -0.1532 12.0823 0.0126434 11.7191 0.525966Z" fill="black"/>
</svg>
