<svg width="49" height="48" viewBox="0 0 49 48" fill="none" xmlns="http://www.w3.org/2000/svg">
<path d="M32.83 22.01C35.33 19.69 36.9 16.38 36.9 12.71C36.9 12.16 36.86 11.62 36.79 11.09C41.87 11.63 45.84 15.95 45.84 21.17C45.84 24.14 44.55 26.8 42.51 28.66C40.6 25.08 37.02 22.52 32.82 22.01M41.45 34.61C41.45 40.2 36.9 44.75 31.31 44.75C29.49 44.75 27.79 44.26 26.31 43.42C28.47 41.14 29.8 38.07 29.8 34.7C29.8 33.87 29.72 33.06 29.56 32.27C31.38 33.28 33.48 33.86 35.71 33.86C37.69 33.86 39.57 33.4 41.25 32.59C41.38 33.25 41.45 33.92 41.45 34.62M6.96002 34.7C6.96002 33.98 7.04002 33.28 7.18002 32.6C8.85002 33.41 10.72 33.86 12.7 33.86C14.92 33.86 17.01 33.28 18.83 32.28C18.69 33.04 18.61 33.82 18.61 34.61C18.61 38.04 19.98 41.15 22.2 43.44C20.7 44.32 18.96 44.83 17.1 44.83C11.51 44.83 6.96002 40.28 6.96002 34.69M2.56003 21.16C2.56003 15.93 6.53002 11.62 11.61 11.08C11.54 11.61 11.5 12.15 11.5 12.7C11.5 16.41 13.1 19.76 15.65 22.08C11.44 22.56 7.85001 25.11 5.92001 28.68C3.86001 26.82 2.56003 24.14 2.56003 21.16ZM24.2 2.56C28.35 2.56 31.93 5.07 33.49 8.66C29.37 9.39 25.92 12.11 24.2 15.79C22.47 12.11 19.03 9.38 14.91 8.66C16.48 5.08 20.05 2.56 24.2 2.56ZM26.62 25.63C28.03 24.89 29.62 24.47 31.31 24.47C35.3 24.47 38.74 26.79 40.4 30.14C38.99 30.88 37.4 31.3 35.71 31.3C31.72 31.3 28.28 28.98 26.62 25.63ZM21.75 25.7C20.08 29.02 16.65 31.3 12.69 31.3C11.01 31.3 9.43003 30.88 8.03003 30.16C9.70003 26.84 13.13 24.56 17.09 24.56C18.77 24.56 20.35 24.98 21.75 25.7ZM14.19 11.14C19.07 11.87 22.84 16.07 22.84 21.16C22.84 21.69 22.79 22.21 22.71 22.72C17.83 21.99 14.06 17.79 14.06 12.7C14.06 12.17 14.11 11.65 14.19 11.14ZM24.25 41.87C22.35 40.03 21.17 37.45 21.17 34.61C21.17 31.77 22.32 29.27 24.16 27.43C26.06 29.27 27.24 31.85 27.24 34.7C27.24 37.55 26.1 40.04 24.25 41.88M34.34 12.7C34.34 17.78 30.58 21.99 25.69 22.72C25.61 22.21 25.56 21.69 25.56 21.16C25.56 16.08 29.32 11.87 34.2 11.14C34.28 11.65 34.33 12.17 34.33 12.7M48.4 21.16C48.4 14.31 42.95 8.72 36.17 8.47C34.43 3.54 29.72 0 24.2 0C18.68 0 13.98 3.54 12.23 8.47C5.45001 8.72 0 14.31 0 21.16C0 25.22 1.92002 28.84 4.90002 31.17C4.58002 32.29 4.40002 33.47 4.40002 34.69C4.40002 41.69 10.1 47.38 17.1 47.38C19.76 47.38 22.22 46.56 24.27 45.16C26.29 46.51 28.71 47.3 31.31 47.3C38.31 47.3 44.01 41.6 44.01 34.6C44.01 33.4 43.84 32.24 43.53 31.15C46.5 28.82 48.41 25.21 48.41 21.16" fill="white"/>
</svg>
