<svg width="47" height="44" viewBox="0 0 47 44" fill="none" xmlns="http://www.w3.org/2000/svg">
<path d="M40.2099 0.357422C40.2099 0.357422 39.2599 1.61743 39.5399 2.83743C39.8199 4.05743 41.2099 4.78741 41.2099 4.78741C41.2099 4.78741 42.1599 3.52743 41.8799 2.30743C41.5999 1.07743 40.2099 0.357422 40.2099 0.357422Z" fill="white"/>
<path d="M38.6699 7.53741C38.6699 7.53741 39.6199 6.27743 39.3399 5.05743C39.0599 3.83743 37.6699 3.10742 37.6699 3.10742C37.6699 3.10742 36.7199 4.36743 36.9999 5.58743C37.2799 6.80743 38.6699 7.53741 38.6699 7.53741Z" fill="white"/>
<path d="M42.5601 6.18735C42.5601 6.18735 43.5601 7.19736 44.7001 7.09736C45.8401 6.99736 46.6801 5.82737 46.6801 5.82737C46.6801 5.82737 45.6801 4.81736 44.5401 4.91736C43.4001 5.01736 42.5601 6.18735 42.5601 6.18735Z" fill="white"/>
<path d="M44.1998 0.80739C43.2698 1.74739 43.3998 3.40737 43.3998 3.40737C43.3998 3.40737 45.0298 3.54738 45.9598 2.60738C46.8898 1.66738 46.7498 0.00737191 46.7498 0.00737191C46.7498 0.00737191 45.1198 -0.13261 44.1898 0.80739" fill="white"/>
<path d="M42.1598 9.92736C43.2898 10.0574 44.3597 9.08737 44.3597 9.08737C44.3597 9.08737 43.5897 7.89736 42.4597 7.76736C41.3197 7.63736 40.2598 8.60736 40.2598 8.60736C40.2598 8.60736 41.0298 9.79736 42.1698 9.92736" fill="white"/>
<path d="M43.1703 28.1573H34.6902C34.0302 28.1573 33.4902 28.6974 33.4902 29.3574C33.4902 30.0174 34.0302 30.5574 34.6902 30.5574H43.1703C43.8303 30.5574 44.3702 30.0174 44.3702 29.3574C44.3702 28.6974 43.8303 28.1573 43.1703 28.1573Z" fill="white"/>
<path d="M43.1703 41.3774H34.6902C34.0302 41.3774 33.4902 41.9175 33.4902 42.5775C33.4902 43.2375 34.0302 43.7775 34.6902 43.7775H43.1703C43.8303 43.7775 44.3702 43.2375 44.3702 42.5775C44.3702 41.9175 43.8303 41.3774 43.1703 41.3774Z" fill="white"/>
<path d="M5.04996 25.2474C4.84996 25.1874 4.64996 25.1274 4.45996 25.0974C4.45996 25.0974 4.67996 25.1674 5.04996 25.2474Z" fill="white"/>
<path d="M18.7901 30.4373C19.3501 30.4373 19.9101 30.4373 20.4701 30.3873V34.8173L18.7901 34.7773V30.4373ZM42.8601 31.3973H35.0001C34.6201 31.3973 34.3201 31.7073 34.3201 32.0773V34.4573L29.1901 35.0173L21.7001 34.8473V30.2773C22.6901 30.1473 23.6901 29.9473 24.6801 29.6673C31.8901 27.6373 33.4601 23.1373 33.3101 19.0173C33.1501 14.8173 34.5001 13.1873 36.4301 12.4573C36.9801 12.2473 37.5301 12.1173 38.0301 12.0373C38.0501 13.0673 38.2601 14.2673 38.7201 15.6973C38.8901 15.6973 39.0601 15.6773 39.2301 15.6573C38.7401 14.1973 38.5301 12.9973 38.5201 11.9673C39.5201 11.8473 40.2301 11.9173 40.2301 11.9173C40.2301 11.9173 39.5601 11.5573 38.6001 10.7573C38.9201 8.76732 40.1101 7.54733 41.3301 6.29733C42.0001 5.60733 42.6901 4.89734 43.2401 4.05734L42.8101 3.77734C42.2901 4.57734 41.6101 5.27732 40.9601 5.93732C39.7701 7.15732 38.5701 8.39732 38.1601 10.3773C37.7701 10.0273 37.3501 9.61733 36.9301 9.13733C35.1501 7.14733 32.8601 8.60734 29.6001 11.6473C26.3301 14.6873 22.2301 14.7873 18.2201 10.6873C12.9301 5.26732 8.31009 5.29733 5.15009 5.60733C7.31009 6.52733 8.07011 8.55733 9.1701 13.6973C10.3201 19.0973 13.2201 21.5373 17.1801 21.8773C15.3401 22.1773 14.8701 22.4273 11.9101 24.4673C9.6001 26.0573 6.3601 25.5573 5.0401 25.2573C7.4501 26.0073 10.3101 28.5473 12.8701 29.4273C14.3601 29.9373 15.9301 30.2573 17.5401 30.3873V34.7673L3.33008 34.4573V37.5173L29.1801 36.9473L34.3101 37.5173V39.8973C34.3101 40.2773 34.6101 40.5773 34.9901 40.5773H42.8501C43.2301 40.5773 43.5301 40.2673 43.5301 39.8973V32.1073C43.5301 31.7273 43.2201 31.4273 42.8501 31.4273" fill="white"/>
<path d="M2.60999 36.9974C2.60999 37.6374 2.15999 38.1674 1.60999 38.1674H1.01001C0.46001 38.1674 0 37.6474 0 36.9974V34.8874C0 34.2374 0.45001 33.7174 1.01001 33.7174H1.60999C2.15999 33.7174 2.60999 34.2374 2.60999 34.8874V36.9974Z" fill="white"/>
</svg>
