<svg width="66" height="46" viewBox="0 0 66 46" fill="none" xmlns="http://www.w3.org/2000/svg">
	<path d="M65.3398 24.1625C65.3398 21.4225 63.5799 19.1925 60.9099 19.1925C59.5799 19.1925 57.9699 20.6525 57.0999 21.5525C56.2299 20.6525 54.7299 19.1925 53.3899 19.1925C50.7199 19.1925 48.8599 21.4125 48.8599 24.1625C48.8599 25.5325 49.3999 26.7725 50.2699 27.6725L57.0999 34.5225L63.9199 27.6825C64.7899 26.7825 65.3398 25.5325 65.3398 24.1625Z" fill="white"/>
	<path d="M36.25 45.6925C36.25 45.6925 36.2 45.6925 36.18 45.6925C35.66 45.6625 35.23 45.2725 35.14 44.7625L31.67 24.5525L26.41 34.3025C26.18 34.7325 25.7 34.9625 25.23 34.8725C24.75 34.7925 24.38 34.4025 24.32 33.9225L22.09 18.3225L18.01 27.4925C17.83 27.8925 17.43 28.1625 16.99 28.1625H1.12001C0.50001 28.1625 0 27.6625 0 27.0425C0 26.4225 0.50001 25.9225 1.12001 25.9225H16.26L21.63 13.8525C21.83 13.3925 22.31 13.1325 22.81 13.2025C23.3 13.2725 23.69 13.6625 23.77 14.1525L26.07 30.2425L31.25 20.6325C31.48 20.2125 31.95 19.9825 32.42 20.0625C32.89 20.1425 33.26 20.5125 33.34 20.9825L36.55 39.7025L48.26 0.792517C48.39 0.352517 48.78 0.0325157 49.25 0.00251568C49.71 -0.0274843 50.15 0.212513 50.35 0.632513L56.51 13.4125C56.78 13.9725 56.55 14.6425 55.99 14.9125C55.43 15.1825 54.76 14.9525 54.49 14.3925L49.58 4.21251L37.32 44.9225C37.18 45.4025 36.74 45.7225 36.25 45.7225" fill="white"/>
</svg>
